PathFileType	4	(X/Y/Z)	T1_P1_NoVision_NoMovement_4_0-615.trc
DataRate	CameraRate	NumFrames	NumMarkers	Units	OrigDataRate	OrigDataStartFrame	OrigNumFrames
60	60	6	27	m	60	0	615
Frame#	Time	RHip			RKnee			RAnkle			RBigToe			RSmallToe			RHeel			LHip			LKnee			LAnkle			LBigToe			LSmallToe			LHeel			Neck			Head			Nose			RShoulder			RElbow			RWrist			RThumb			RIndex			RPinky			LShoulder			LElbow			LWrist			LThumb			LIndex			LPinky		
		X1	Y1	Z1	X2	Y2	Z2	X3	Y3	Z3	X4	Y4	Z4	X5	Y5	Z5	X6	Y6	Z6	X7	Y7	Z7	X8	Y8	Z8	X9	Y9	Z9	X10	Y10	Z10	X11	Y11	Z11	X12	Y12	Z12	X13	Y13	Z13	X14	Y14	Z14	X15	Y15	Z15	X16	Y16	Z16	X17	Y17	Z17	X18	Y18	Z18	X19	Y19	Z19	X20	Y20	Z20	X21	Y21	Z21	X22	Y22	Z22	X23	Y23	Z23	X24	Y24	Z24	X25	Y25	Z25	X26	Y26	Z26	X27	Y27	Z27
1	0.0166666666666666	-66.29139200784333	3788.6845085182176	-546.1109021613331	294.06876836753116	3871.195279043921	-540.4986648219195	653.5114865824783	4190.098555150887	-601.6269801143583	712.2349734697357	3992.822385278163	-508.1562487514882	731.3889055054879	4039.8011128480885	-599.9998463242397	683.6206131938416	4209.64524978307	-578.8285282243284	-102.89127692627854	3903.890250707668	-357.4128565333207	238.86268515247127	3982.9855161183327	-355.3103062518907	590.7837303917909	4201.626134923529	-387.09762164457095	681.1700086237794	4154.557886128039	-344.16196640867736	645.9594220859688	4163.454810465803	-306.6068053308983	628.3696291656908	4264.276779052979	-428.5922783924246	-667.3222464507342	3673.1743042107682	-485.0433349830019	-901.4683265866953	3519.157125199936	-432.2310418477098	-750.0722956107547	3537.7966201305007	-398.848314360899	-558.8579411874292	3652.6667745453738	-644.5604522158673	-298.7629004883553	3747.345985493417	-704.7444598492466	-43.3759804362676	3717.9355805555674	-629.5481519670401	71.58249544298744	3792.163738659685	-575.5520293506086	94.34877498598615	3790.005532728725	-591.106663425021	84.54304782963666	3731.4692482610776	-589.7223392865593	-611.4221662219377	3763.741418299811	-348.97463684178086	-386.7544802331769	3981.8653675174264	-338.86270871770887	-123.0188505383363	3979.2807801267586	-299.9679639928214	10.922394351140333	3929.187154823169	-320.34221327041877	28.45873468402333	3925.326241582138	-280.84626338896936	-3.418695005703167	3987.2678671346353	-245.4949177636453
2	0.0333333333333333	-66.25665794243152	3788.613267249013	-546.0247776002427	294.7855159023156	3878.4857542084346	-542.0854312293817	652.5341336202712	4178.1393621720035	-591.850909234124	704.4446966176116	3962.0102465581	-493.8897171262763	724.4948655753341	4037.96575628586	-600.2527200150881	686.3992845127221	4209.119674656482	-575.0254510978378	-102.77857183851965	3904.093293399427	-357.61339609622576	239.26163884609875	3989.66005135839	-356.5378763183913	592.5764004969942	4202.422741178281	-386.79799476856243	678.6855272399704	4141.220583929943	-335.1906267397577	640.5264169074853	4149.254851659676	-297.7743880964302	627.4864495106157	4251.607401018688	-419.5581222302527	-667.2466095780468	3673.118772757802	-484.98052368138303	-901.5727233251245	3519.5917459841753	-430.25098797479956	-749.9311037450007	3537.9010056888033	-398.99298438001745	-558.7794241700298	3652.51667574579	-644.5108130891726	-298.70521139104807	3747.4416932908903	-704.7258648651223	-41.996555949884005	3701.696211739012	-624.7908294324195	71.41735337446165	3792.392170608905	-575.4901920606616	93.88247670964009	3785.502553133907	-587.5540043635766	84.57091777301171	3731.363783798088	-590.2891275342772	-610.1321755167792	3764.0759931098423	-348.876966716988	-386.78954122172075	3982.116964123489	-338.9771139958186	-122.35673163764135	3981.211782595626	-304.53067861169194	8.197353242157881	3928.1836502320853	-323.3547759352351	29.682282267293438	3936.303687884608	-291.7944230193316	-0.3814152885035167	3989.1287196659123	-246.32142346220976
3	0.05	-66.23071948534984	3788.516130554301	-545.9104260927892	294.3439240579968	3880.708866344431	-542.35475881352	651.8241543218153	4170.7252684281775	-586.4749780048209	698.0785628762097	3942.8478294685824	-485.9128296454007	719.4693286249478	4036.072195764015	-599.874204267024	686.9625309037863	4206.708129208327	-571.6406280982553	-102.65030012644222	3904.2868307096574	-357.75333845544145	239.2560510572838	3991.935588912874	-356.98817259242355	592.675766078898	4202.286477454354	-386.44204741284585	675.9874879527009	4132.4561017052965	-329.8989217803877	635.8245350434992	4140.144193139233	-292.6526127695961	626.4503340026399	4243.695322302595	-414.08566530038246	-667.194440258545	3673.105424641344	-484.94057997831464	-902.0599277573649	3521.6795186801623	-429.7745575690274	-749.7098826353864	3538.0770881651274	-399.1128856773428	-558.7263823669025	3652.425916898145	-644.4865807047308	-298.6636598881883	3747.4746884402257	-704.7149077350583	-40.8459547118465	3692.0634257699685	-621.9312215508144	71.72817833496184	3792.033132461992	-575.4152787667533	93.69293313611053	3783.264983328385	-585.7597888225181	84.64613428306365	3731.1773061698923	-591.1064152119843	-609.0579679208503	3764.402382531865	-348.8003997447008	-386.78787472573975	3982.2804906116635	-339.0492976121938	-121.96099442653374	3979.4715808620576	-306.8163755733297	6.973257560327472	3927.8232310586	-325.27475097893205	30.081273304775216	3939.2024129320534	-295.3707122409356	1.5081945471789664	3990.872147553361	-247.22519060783907
4	0.0666666666666666	-66.20471166316602	3788.815243672818	-546.0953151949649	292.2816788257186	3876.922801322265	-541.3734183899024	651.4206291183169	4168.347693049889	-585.6830715440806	693.8751535392364	3937.123794366159	-484.2261594247105	716.958644962334	4034.4628486480774	-598.9361518092303	685.29926074677	4203.804246928148	-569.3981489493134	-102.6818579334097	3904.3416316028843	-357.77423578263745	238.59106645849096	3989.3326755322832	-356.61037276944984	590.3866204561763	4200.790043784474	-385.9299930283547	674.1302330453202	4129.270918671806	-328.4427519673974	632.6297160924396	4136.665764741265	-291.4206273094303	624.5409966163538	4240.418671155997	-412.28876319949353	-667.1702396205094	3673.131956202597	-484.93125093767	-902.8647109518988	3525.1418466308396	-430.8980587106065	-749.2800007258637	3538.4128057501575	-399.2345439712038	-558.7006098260163	3652.3829766114254	-644.475384125529	-298.6429409720167	3747.4475499173545	-704.7037546506378	-40.0231132872408	3689.6306048603724	-621.1361613546751	72.58761257624316	3790.1629538583175	-575.1010735706504	93.65858786695263	3783.5292490822644	-585.930705152936	84.72162961963765	3731.016658489102	-591.9055911513893	-608.3326356456487	3764.672282422894	-348.75956145665754	-386.73865833977794	3982.357914255508	-339.0864189944318	-122.1799890432108	3972.0444690724735	-306.25128203485025	7.304941549379021	3928.1125549239446	-326.0321887931215	29.64547625643858	3934.3023379275983	-291.50428874339536	2.0920987741279613	3993.1283859095415	-248.61751766833302
5	0.0833333333333333	-66.14470099568175	3790.4057243347656	-547.2831762688107	289.8812872946082	3872.7984933715356	-541.3595228482649	651.6705060280101	4169.202462050046	-587.330900701767	692.8697273209847	3940.6746618547563	-485.66430035513116	716.7238124425821	4033.765791974093	-598.0622597177679	683.4480463258184	4202.564788934538	-568.9478626265291	-103.28329118916751	3903.968245967236	-357.585815988035	237.6480449876792	3987.5477806426306	-356.4293077727609	587.0204563482336	4198.676155311185	-385.31863185702616	673.930403007214	4129.613735232004	-328.72948010798933	631.169332604383	4136.41066841386	-291.9419757029371	621.6269129968887	4238.871714566555	-411.9839169901501	-667.1617955101522	3673.1610705594935	-484.9419366609297	-903.2815747285413	3527.0013084890325	-432.39708556092023	-748.7219576597465	3538.824455933762	-399.3602147075976	-558.6910318328851	3652.3532431230014	-644.4640628035271	-298.63899387244135	3747.410904347214	-704.6854671784893	-39.68616593650552	3690.8105753802165	-621.411316644855	73.48258833615495	3787.1234329470803	-574.5048705789785	93.22570191416852	3784.3509469057662	-586.609730127172	84.73764489195628	3731.147666806094	-592.3482368724193	-608.1133905995163	3764.7885994000135	-348.7621294235647	-386.68509980897767	3982.3958884345157	-339.11124426342207	-123.30783933762866	3961.093839615384	-303.83666126847527	7.996300839940299	3928.476823500502	-326.1508174184579	29.01137279901024	3928.0195033316445	-285.9141496560602	1.754361788258354	3995.76920150621	-250.31631945488255
6	0.1	-66.02832027730605	3793.5877888282657	-549.7254541600424	289.29136374069697	3874.4992885245783	-544.3864756836581	652.9692996652309	4172.807154582912	-590.3617732408621	695.7776526072614	3949.238689515579	-488.51629747394225	717.9058302278763	4034.163527355277	-597.780125184883	683.4620656868256	4202.968407517805	-569.821412468593	-104.68575811231987	3902.9805890089874	-357.1398794780681	237.41496299231017	3992.2063071347466	-357.3465413851152	584.7161954356112	4197.242158618377	-384.9023533120991	674.6592754478635	4130.932329112299	-329.2151890981401	631.2956101184395	4137.276865856778	-292.5223476389301	618.82824726228	4237.624949580251	-411.78847011522123	-667.1560216550758	3673.1547769683034	-484.95001530311447	-902.8214405140515	3525.1700372092932	-433.0169380479076	-748.5067090340318	3538.9622599876984	-399.39524000940014	-558.6893543615676	3652.330242176745	-644.4646411853296	-298.64461338318	3747.3916678208907	-704.668172001184	-40.22655805636068	3692.3187014333594	-621.9203135096242	73.83873808899914	3785.8484459978026	-574.2569129917433	92.04626907614971	3784.719354577598	-587.1254017257309	84.71844104326934	3731.681486515949	-592.4970455069507	-608.6247770759572	3764.6376613661696	-348.8078709505762	-386.7622637963619	3982.35564962717	-339.10288708538354	-125.06281310040131	3951.6451909211796	-300.7529018434874	8.230806703609572	3928.540898323128	-325.9378764973549	28.665263223393456	3924.816202854035	-282.989631580983	0.8001852944546223	3996.576308383472	-250.85062123765329
